<svg width="438" height="438" viewBox="0 0 438 438" fill="none" xmlns="http://www.w3.org/2000/svg">
<g clip-path="url(#clip0_6_649)">
<path d="M373.833 185.584C373.722 183.914 373.443 182.41 372.885 181.129C372.383 179.904 371.714 178.901 370.711 178.233C367.254 174.39 361.846 170.659 355.49 167.262C349.022 163.809 341.439 160.69 333.633 158.017C332.518 157.627 331.459 157.293 330.344 156.959C331.013 153.339 331.571 149.607 331.961 145.82C333.968 127.33 332.351 106.836 319.137 85.2826C310.272 67.0155 292.319 53.8164 270.072 46.0752C247.77 38.334 221.008 36.0506 194.356 39.6706C141.11 46.9663 87.7522 77.9312 70.9141 136.687C62.9968 164.254 61.8259 188.48 67.7918 208.418C73.7576 228.356 86.8601 243.839 107.155 253.863C117.135 258.764 126.223 259.655 134.308 257.873C142.504 287.279 148.47 324.203 137.709 361.461C136.148 366.919 137.43 372.989 141.891 376.776C153.878 386.968 168.486 396.38 186.216 398.83C204.002 401.281 224.743 396.825 248.83 379.616L248.16 378.725L249.164 379.227C255.353 367.476 261.04 355.836 268.344 347.148C275.648 338.46 284.401 332.779 296.668 332.779C303.191 332.779 307.651 330.997 310.16 328.157C312.725 325.316 313.227 321.641 312.223 318.244C310.216 311.56 302.355 305.88 292.653 309.444C288.416 311.003 284.178 310.502 280.61 308.999C277.042 307.495 274.254 304.989 272.972 302.594C272.358 301.424 272.135 300.366 272.303 299.531C272.47 298.751 272.916 298.027 273.975 297.47C275.09 296.858 276.763 296.468 279.328 296.468C281.837 296.468 285.071 296.913 289.196 297.916H289.308C293.936 298.528 299.455 298.695 304.473 298.25C309.436 297.804 314.119 296.746 316.907 294.964C318.301 294.017 319.36 292.792 319.527 291.177C319.695 289.562 318.914 287.947 317.409 286.332C314.454 283.157 308.098 279.37 297.114 274.915C289.81 272.297 284.513 269.012 281.223 265.726C277.878 262.384 276.763 259.321 277.209 257.038C277.655 254.81 279.83 252.805 284.401 251.97C288.973 251.134 295.72 251.524 304.808 253.919C310.662 255.478 319.249 257.038 327.835 257.65C336.366 258.263 345.119 258.04 351.141 255.924C354.151 254.866 356.66 253.251 358.11 250.911C359.56 248.517 359.727 245.565 358.5 242.056C357.274 238.604 354.709 234.538 350.472 229.748C346.847 225.683 341.997 221.005 335.696 215.714C338.651 215.992 341.83 215.881 344.896 215.714C349.078 215.436 353.092 214.99 356.716 214.99H356.939C365.08 213.208 370.209 204.91 372.495 197.001C373.554 192.992 374.056 188.926 373.833 185.584ZM108.159 251.858C88.3655 242.112 75.709 227.075 69.9105 207.806C64.1119 188.425 65.1712 164.644 73.0328 137.355C89.5921 79.6577 141.946 49.0826 194.691 41.8983C221.063 38.2783 247.38 40.5617 269.292 48.1358C291.204 55.7657 308.599 68.6306 317.13 86.2294V86.2851L317.186 86.3408C330.121 107.392 331.738 127.386 329.731 145.542C329.34 149.217 328.783 152.782 328.169 156.235C314.119 151.946 299.734 149.217 289.475 149.217C285.461 148.716 280.945 149.05 276.317 150.053C264.441 145.152 251.004 142.646 242.139 141.977C235.058 141.42 208.24 138.302 179.749 138.914C165.531 139.193 150.812 140.418 137.932 143.425C125.108 146.377 113.901 151.111 106.876 158.518C99.6838 166.76 96.3385 174.168 95.8925 180.684C95.4464 187.255 97.8997 192.713 102.026 197.168C106.151 201.624 111.95 204.965 118.139 207.304C118.864 210.368 120.09 214.099 121.54 218.387C124.885 228.189 129.624 240.943 133.862 255.757C126.168 257.372 117.693 256.536 108.159 251.858ZM277.098 152.837C289.141 158.128 298.619 165.702 299.455 176.061C301.63 202.96 282.896 212.707 274.923 212.707C270.797 212.707 262.601 210.98 255.353 206.302C248.16 201.68 242.027 194.272 241.749 182.856C241.526 174 248.607 165.591 258.419 159.576C263.883 156.235 270.072 153.728 276.038 152.336C276.373 152.559 276.763 152.67 277.098 152.837ZM119.867 205.522C119.533 203.963 119.365 202.626 119.365 201.568C119.365 200.51 119.533 199.786 119.756 199.396L119.812 199.285L119.867 199.173C125.108 183.802 131.576 175.17 138.099 171.049C144.511 167.039 151.09 167.429 156.889 170.548C162.743 173.722 167.873 179.737 171.107 186.921C174.34 194.05 175.623 202.236 174.006 209.699C172.389 217.273 165.642 232.756 154.38 243.839C149.139 249.018 142.95 253.195 135.869 255.2C131.576 240.274 126.781 227.409 123.491 217.663C122.265 214.043 121.261 210.869 120.536 208.196C125.777 209.866 131.186 210.869 136.036 211.092C140.608 211.314 143.954 211.147 146.463 210.702C148.972 210.256 150.644 209.588 151.759 208.697C154.157 206.803 153.655 204.297 153.655 203.573V194.105C153.655 193.493 153.153 192.992 152.54 192.992C151.927 192.992 151.425 193.493 151.425 194.105V203.573C151.425 204.798 151.704 205.912 150.421 206.97C149.696 207.527 148.414 208.14 146.128 208.53C143.842 208.92 140.664 209.087 136.204 208.864C131.074 208.585 125.387 207.527 119.979 205.634C119.923 205.578 119.867 205.578 119.867 205.522ZM348.687 231.252C352.813 235.93 355.211 239.717 356.27 242.836C357.33 245.899 357.106 248.127 356.103 249.798C355.044 251.524 353.092 252.861 350.304 253.863C344.729 255.812 336.365 256.147 327.891 255.478C319.472 254.866 310.997 253.306 305.31 251.803C296.11 249.352 288.973 248.851 283.955 249.798C278.937 250.744 275.704 253.084 274.979 256.592C274.254 259.989 276.038 263.832 279.607 267.341C283.175 270.905 288.806 274.358 296.277 277.031C307.205 281.487 313.115 285.107 315.736 287.891C317.018 289.284 317.353 290.286 317.297 291.01C317.241 291.678 316.795 292.402 315.68 293.126C313.394 294.63 309.213 295.632 304.306 296.078C299.455 296.523 294.103 296.412 289.642 295.799C285.461 294.797 282.06 294.351 279.328 294.351C276.596 294.351 274.477 294.797 272.916 295.632C271.355 296.468 270.407 297.749 270.128 299.308C269.849 300.812 270.24 302.371 271.02 303.819C272.581 306.715 275.759 309.556 279.718 311.226C283.732 312.897 288.583 313.454 293.434 311.672C301.853 308.553 308.432 313.454 310.105 319.023C310.941 321.808 310.495 324.648 308.544 326.82C306.536 328.992 302.856 330.719 296.668 330.719C283.565 330.719 274.198 336.845 266.671 345.867C259.2 354.778 253.401 366.584 247.324 378.113C223.684 394.876 203.556 399.109 186.551 396.77C169.434 394.375 155.16 385.353 143.396 375.217C139.716 372.098 138.545 366.974 139.939 362.185C150.867 324.37 144.846 287 136.594 257.483C144.121 255.367 150.644 250.912 156.108 245.565C167.705 234.148 174.619 218.276 176.348 210.312C178.076 202.292 176.682 193.66 173.281 186.141C169.88 178.679 164.472 172.218 158.115 168.765C151.648 165.257 144.232 164.811 137.04 169.322C129.959 173.778 123.268 183.023 117.916 198.505C117.414 199.396 117.247 200.51 117.303 201.68C117.303 202.626 117.414 203.629 117.637 204.798C112.229 202.626 107.267 199.619 103.754 195.776C100.018 191.711 97.8439 186.81 98.2342 180.962C98.6245 175.114 101.691 168.153 108.66 160.133C115.24 153.227 125.945 148.605 138.601 145.709C151.258 142.813 165.81 141.588 179.972 141.253C208.295 140.641 234.946 143.815 242.139 144.316C250.112 144.929 261.932 147.045 272.749 151.111C267.452 152.615 262.155 154.898 257.472 157.85C247.436 163.976 239.463 172.998 239.741 183.078C240.02 195.386 246.711 203.406 254.349 208.307C261.932 213.208 270.574 215.046 275.146 215.046C284.457 215.046 304.195 204.186 301.909 175.95C301.017 164.867 291.482 157.014 280.164 151.724C283.454 151.222 286.632 151.167 289.475 151.501H289.587C299.623 151.501 313.952 154.174 327.946 158.518C327.11 162.973 326.162 167.262 325.27 171.439C323.486 179.514 321.758 187.088 321.089 194.05C320.475 201.011 321.367 205.912 323.542 209.365C325.382 212.317 328.114 213.988 331.18 214.934C338.819 221.172 344.562 226.63 348.687 231.252ZM370.265 196.333C368.035 203.963 363.295 211.147 356.437 212.707C352.813 212.707 348.632 213.208 344.617 213.431C340.491 213.709 336.533 213.765 333.132 213.041C329.731 212.317 326.999 210.813 325.214 208.028C323.43 205.188 322.482 200.844 323.096 194.105C323.709 187.367 325.382 179.904 327.222 171.773C328.114 167.707 329.062 163.419 329.898 159.019C330.901 159.353 331.905 159.688 332.853 160.022C340.603 162.639 348.074 165.758 354.374 169.1C360.731 172.441 365.86 176.061 369.094 179.681L369.205 179.792L369.373 179.904C369.874 180.238 370.376 180.851 370.822 181.853C371.213 182.856 371.491 184.136 371.603 185.64C371.826 188.759 371.38 192.546 370.265 196.333Z" fill="black"/>
</g>
<path d="M398.917 109.228C398.409 111.378 396.255 112.71 394.105 112.203C391.955 111.695 390.623 109.541 391.13 107.391C391.638 105.241 393.792 103.909 395.942 104.416C398.092 104.924 399.424 107.078 398.917 109.228Z" fill="#00FFFF"/>
<path d="M353.4 51.7403C356.501 35.1309 360.613 22.4847 375.797 30.708C377.281 31.5118 378.646 32.5704 379.735 33.8609C389.917 45.9367 384.13 62.3354 381.703 73.3157L387.904 92.7591" stroke="#FF1492" stroke-width="4"/>
<defs>
<clipPath id="clip0_6_649">
<rect width="310" height="362" fill="white" transform="translate(64 38)"/>
</clipPath>
</defs>
</svg>
